<svg width="60" height="60" viewBox="0 0 60 60" fill="none" xmlns="http://www.w3.org/2000/svg">
<g filter="url(#filter0_d_123_1055)">
<rect x="2" y="1" width="56" height="56" rx="8" fill="white"/>
<rect x="2.5" y="1.5" width="55" height="55" rx="7.5" stroke="#D5D7DA"/>
<path d="M26 31C26 31 27.5 33 30 33C32.5 33 34 31 34 31M27 26H27.01M33 26H33.01M40 29C40 34.5228 35.5228 39 30 39C24.4772 39 20 34.5228 20 29C20 23.4772 24.4772 19 30 19C35.5228 19 40 23.4772 40 29Z" stroke="#414651" stroke-width="1.67" stroke-linecap="round" stroke-linejoin="round"/>
</g>
<defs>
<filter id="filter0_d_123_1055" x="0" y="0" width="60" height="60" filterUnits="userSpaceOnUse" color-interpolation-filters="sRGB">
<feFlood flood-opacity="0" result="BackgroundImageFix"/>
<feColorMatrix in="SourceAlpha" type="matrix" values="0 0 0 0 0 0 0 0 0 0 0 0 0 0 0 0 0 0 127 0" result="hardAlpha"/>
<feOffset dy="1"/>
<feGaussianBlur stdDeviation="1"/>
<feColorMatrix type="matrix" values="0 0 0 0 0.0392157 0 0 0 0 0.0496732 0 0 0 0 0.0705882 0 0 0 0.05 0"/>
<feBlend mode="normal" in2="BackgroundImageFix" result="effect1_dropShadow_123_1055"/>
<feBlend mode="normal" in="SourceGraphic" in2="effect1_dropShadow_123_1055" result="shape"/>
</filter>
</defs>
</svg>
